<svg width="90" height="90" viewBox="0 0 90 90" fill="none" xmlns="http://www.w3.org/2000/svg">
<path d="M60.1887 64.87C60.2517 64.864 60.3137 64.864 60.3727 64.87H66.8047C69.3677 64.822 69.3677 68.692 66.8047 68.65H60.3727C57.8827 68.739 57.7047 65.021 60.1887 64.87ZM44.0547 64.87C44.1177 64.864 44.1857 64.864 44.2477 64.87H50.6697C53.2357 64.822 53.2357 68.692 50.6697 68.65H44.2477C41.7517 68.755 41.5547 65.021 44.0547 64.87ZM60.3727 56.313H66.8047C69.3677 56.27 69.3677 60.141 66.8047 60.094H60.3727C57.8107 60.14 57.8107 56.27 60.3727 56.313ZM44.2477 56.313H50.6697C53.2327 56.27 53.2327 60.141 50.6697 60.094H44.2477C41.6797 60.14 41.6797 56.27 44.2477 56.313ZM60.3727 47.761H66.8047C69.3677 47.713 69.3677 51.583 66.8047 51.537H60.3727C57.8107 51.583 57.8107 47.712 60.3727 47.761ZM44.2477 47.761H50.6697C53.2327 47.713 53.2327 51.583 50.6697 51.537H44.2477C41.6797 51.583 41.6797 47.712 44.2477 47.761ZM47.9507 12.75H70.8357C70.8827 12.75 70.9507 12.765 70.9507 12.948V41.756C70.9507 41.937 70.8827 41.959 70.8357 41.959H40.2167C40.1637 41.959 40.0957 41.938 40.0957 41.756V19.9L47.9507 12.75ZM47.3257 9.448C46.9137 9.448 46.5167 9.603 46.2167 9.88L37.3357 17.953C36.9917 18.265 36.7987 18.708 36.7927 19.172V21.281L36.7727 21.286V69.203C36.7727 70.614 35.9977 71.884 35.0437 72.614C34.0947 73.338 32.9757 73.646 31.8547 73.646H17.1227C16.0037 73.646 14.8767 73.338 13.9237 72.603C12.9767 71.874 12.2107 70.603 12.2107 69.203V26.63C9.9447 27.275 8.2207 29.307 8.2207 31.761V74.703C8.2207 77.687 10.7737 80.062 13.7577 80.062H76.1897C79.1737 80.062 81.7207 77.687 81.7207 74.703V31.979C81.7207 28.988 79.1737 26.624 76.1897 26.624H74.2517V12.948C74.2517 11.078 72.7417 9.448 70.8357 9.448H47.3257Z" fill="#00CC66"/>
<path d="M46.3139 22.974C45.2569 22.958 44.3979 23.807 44.3979 24.859C44.3979 25.916 45.2569 26.765 46.3139 26.75H64.7359C65.7949 26.765 66.6539 25.917 66.6539 24.859C66.6539 23.807 65.7949 22.958 64.7359 22.974H46.3139ZM46.3139 30.724C45.2569 30.707 44.3979 31.557 44.3979 32.615C44.3979 33.666 45.2569 34.516 46.3139 34.506H54.7359C55.7889 34.516 56.6539 33.667 56.6539 32.615C56.6539 31.557 55.7889 30.708 54.7359 30.724H46.3139ZM17.0919 18.135C16.0289 18.135 15.3359 18.723 15.3359 19.422V69.203C15.3359 69.9 16.0289 70.488 17.0919 70.488H31.8259C32.8829 70.488 33.5919 69.9 33.5919 69.203V19.422C33.5919 18.723 32.8829 18.135 31.8259 18.135H17.0919Z" fill="#00CC66"/>
</svg>
