<svg width="1792" height="1792" viewBox="0 0 1792 1792" fill="none" xmlns="http://www.w3.org/2000/svg">
<path d="M1472 992V1472C1472 1489.33 1465.67 1504.33 1453 1517C1440.33 1529.67 1425.33 1536 1408 1536H1024V1152H768V1536H384C366.667 1536 351.667 1529.67 339 1517C326.333 1504.33 320 1489.33 320 1472V992C320 991.333 320.167 990.333 320.5 989C320.833 987.667 321 986.667 321 986L896 512L1471 986C1471.67 987.333 1472 989.333 1472 992ZM1695 923L1633 997C1627.67 1003 1620.67 1006.67 1612 1008H1609C1600.33 1008 1593.33 1005.67 1588 1001L896 424L204 1001C196 1006.33 188 1008.67 180 1008C171.333 1006.67 164.333 1003 159 997L97 923C91.6667 916.333 89.3334 908.5 90 899.5C90.6667 890.5 94.3334 883.333 101 878L820 279C841.333 261.667 866.667 253 896 253C925.333 253 950.667 261.667 972 279L1216 483V288C1216 278.667 1219 271 1225 265C1231 259 1238.67 256 1248 256H1440C1449.33 256 1457 259 1463 265C1469 271 1472 278.667 1472 288V696L1691 878C1697.67 883.333 1701.33 890.5 1702 899.5C1702.67 908.5 1700.33 916.333 1695 923Z" fill="black"/>
</svg>
