<svg width="30" height="29" viewBox="0 0 30 29" fill="none" xmlns="http://www.w3.org/2000/svg">
<g clip-path="url(#clip0_66_183)">
<path d="M7.69157 1.99739C7.35736 2.30336 7.14413 2.74013 7.14413 3.23123V16.3909L10.479 13.0425V3.23128C10.479 2.76804 10.29 2.34957 9.98994 2.04826C9.97152 2.02938 9.94884 2.01556 9.92946 1.99746H10.4306C10.4858 2.24719 10.6973 2.43774 10.9627 2.43774H11.7473C12.0127 2.43774 12.2242 2.24719 12.2795 1.99746H12.7796C12.4448 2.30344 12.23 2.7402 12.23 3.23131V11.2845L15.5649 7.93613V3.23146C15.5649 2.76821 15.3815 2.34975 15.0758 2.04844C14.7757 1.74149 14.3588 1.55736 13.8976 1.55736C13.8317 1.55736 13.7691 1.56942 13.7049 1.57682C13.7165 1.53186 13.7324 1.48826 13.7324 1.4396C13.7324 1.13148 13.4839 0.881572 13.1766 0.881572H12.2795C12.2242 0.631848 12.0127 0.441101 11.7473 0.441101H10.9628C10.6974 0.441101 10.4859 0.631654 10.4306 0.881572H8.97747C8.89082 0.881572 8.81134 0.905318 8.73806 0.940938C8.66497 0.905318 8.5855 0.881572 8.49865 0.881572H7.04531C6.99006 0.631848 6.77856 0.441101 6.51296 0.441101H5.7286C5.46321 0.441101 5.25171 0.631654 5.19644 0.881572H4.29908C3.99182 0.881572 3.7433 1.13149 3.7433 1.4396C3.7433 1.48826 3.7592 1.53167 3.77083 1.57663C3.70725 1.56923 3.64522 1.55716 3.57969 1.55716C2.65865 1.55716 1.91211 2.30673 1.91211 3.23149V26.9034C1.91211 27.2117 2.16102 27.4614 2.46789 27.4614H4.69124C4.99831 27.4614 5.24702 27.2115 5.24702 26.9034L5.24721 3.23149C5.24721 2.74099 5.03339 2.30384 4.69858 1.99764H5.19659C5.25184 2.24737 5.46334 2.43792 5.72875 2.43792H6.51311C6.7785 2.43792 6.99 2.24737 7.04546 1.99764L7.69157 1.99739Z" fill="white"/>
<path d="M28.5507 1.60286L28.1577 1.20832C27.7235 0.772519 27.0196 0.772519 26.5855 1.20832L20.3519 7.46724H20.3497C20.2937 7.46704 17.9253 7.46121 18.0765 7.46159C17.7819 7.45614 17.4928 7.57877 17.2872 7.78528C15.5983 9.48118 9.7582 15.3447 7.39346 17.719C7.28238 17.8306 7.19902 17.9647 7.14338 18.104C7.04335 18.3664 7.04335 18.651 7.14338 18.9131V26.9046C7.14338 27.2129 7.39229 27.4626 7.69916 27.4626H9.92251C10.2296 27.4626 10.4783 27.2127 10.4783 26.9046V22.3897L10.5396 22.451C10.973 22.8862 11.679 22.8862 12.1125 22.451L12.2294 22.3338V26.9044C12.2294 27.2127 12.4783 27.4625 12.7852 27.4625H15.0085C15.3156 27.4625 15.5643 27.2125 15.5643 26.9044L15.5639 18.9857L22.0006 12.523C22.2119 12.3109 22.3286 12.0263 22.3286 11.725C22.3282 11.6687 22.3107 9.29779 22.3119 9.44807V9.44516L28.5506 3.18125C28.9846 2.74545 28.9846 2.03869 28.5506 1.6029L28.5507 1.60286Z" fill="white"/>
<path d="M24.1981 21.0434C24.1981 22.8927 22.705 24.3918 20.8632 24.3918C19.0214 24.3918 17.5283 22.8927 17.5283 21.0434C17.5283 19.1942 19.0214 17.6948 20.8632 17.6948C22.705 17.6948 24.1981 19.1942 24.1981 21.0434Z" fill="white"/>
<path d="M7.69157 1.99739C7.35736 2.30336 7.14413 2.74013 7.14413 3.23123V16.3909L10.479 13.0425V3.23128C10.479 2.76804 10.29 2.34957 9.98994 2.04826C9.97152 2.02938 9.94884 2.01556 9.92946 1.99746H10.4306C10.4858 2.24719 10.6973 2.43774 10.9627 2.43774H11.7473C12.0127 2.43774 12.2242 2.24719 12.2795 1.99746H12.7796C12.4448 2.30344 12.23 2.7402 12.23 3.23131V11.2845L15.5649 7.93613V3.23146C15.5649 2.76821 15.3815 2.34975 15.0758 2.04844C14.7757 1.74149 14.3588 1.55736 13.8976 1.55736C13.8317 1.55736 13.7691 1.56942 13.7049 1.57682C13.7165 1.53186 13.7324 1.48826 13.7324 1.4396C13.7324 1.13148 13.4839 0.881572 13.1766 0.881572H12.2795C12.2242 0.631848 12.0127 0.441101 11.7473 0.441101H10.9628C10.6974 0.441101 10.4859 0.631654 10.4306 0.881572H8.97747C8.89082 0.881572 8.81134 0.905318 8.73806 0.940938C8.66497 0.905318 8.5855 0.881572 8.49865 0.881572H7.04531C6.99006 0.631848 6.77856 0.441101 6.51296 0.441101H5.7286C5.46321 0.441101 5.25171 0.631654 5.19644 0.881572H4.29908C3.99182 0.881572 3.7433 1.13149 3.7433 1.4396C3.7433 1.48826 3.7592 1.53167 3.77083 1.57663C3.70725 1.56923 3.64522 1.55716 3.57969 1.55716C2.65865 1.55716 1.91211 2.30673 1.91211 3.23149V26.9034C1.91211 27.2117 2.16102 27.4614 2.46789 27.4614H4.69124C4.99831 27.4614 5.24702 27.2115 5.24702 26.9034L5.24721 3.23149C5.24721 2.74099 5.03339 2.30384 4.69858 1.99764H5.19659C5.25184 2.24737 5.46334 2.43792 5.72875 2.43792H6.51311C6.7785 2.43792 6.99 2.24737 7.04546 1.99764L7.69157 1.99739Z" fill="white"/>
<path d="M28.5507 1.60286L28.1577 1.20832C27.7235 0.772519 27.0196 0.772519 26.5855 1.20832L20.3519 7.46724H20.3497C20.2937 7.46704 17.9253 7.46121 18.0765 7.46159C17.7819 7.45614 17.4928 7.57877 17.2872 7.78528C15.5983 9.48118 9.7582 15.3447 7.39346 17.719C7.28238 17.8306 7.19902 17.9647 7.14338 18.104C7.04335 18.3664 7.04335 18.651 7.14338 18.9131V26.9046C7.14338 27.2129 7.39229 27.4626 7.69916 27.4626H9.92251C10.2296 27.4626 10.4783 27.2127 10.4783 26.9046V22.3897L10.5396 22.451C10.973 22.8862 11.679 22.8862 12.1125 22.451L12.2294 22.3338V26.9044C12.2294 27.2127 12.4783 27.4625 12.7852 27.4625H15.0085C15.3156 27.4625 15.5643 27.2125 15.5643 26.9044L15.5639 18.9857L22.0006 12.523C22.2119 12.3109 22.3286 12.0263 22.3286 11.725C22.3282 11.6687 22.3107 9.29779 22.3119 9.44807V9.44516L28.5506 3.18125C28.9846 2.74545 28.9846 2.03869 28.5506 1.6029L28.5507 1.60286Z" fill="white"/>
<path d="M24.1981 21.0434C24.1981 22.8927 22.705 24.3918 20.8632 24.3918C19.0214 24.3918 17.5283 22.8927 17.5283 21.0434C17.5283 19.1942 19.0214 17.6948 20.8632 17.6948C22.705 17.6948 24.1981 19.1942 24.1981 21.0434Z" fill="white"/>
</g>
<defs>
<clipPath id="clip0_66_183">
<rect width="29.7848" height="29" fill="white" transform="translate(0.214844)"/>
</clipPath>
</defs>
</svg>
